<svg width="30" height="17" viewBox="0 0 30 17" fill="none" xmlns="http://www.w3.org/2000/svg">
<path d="M0 15.0097C0 14.7035 0.127934 14.4098 0.355656 14.1933C0.583379 13.9768 0.892237 13.8551 1.21429 13.8551H8.5C8.82205 13.8551 9.13091 13.9768 9.35863 14.1933C9.58635 14.4098 9.71429 14.7035 9.71429 15.0097C9.71429 15.3159 9.58635 15.6096 9.35863 15.8262C9.13091 16.0427 8.82205 16.1643 8.5 16.1643H1.21429C0.892237 16.1643 0.583379 16.0427 0.355656 15.8262C0.127934 15.6096 0 15.3159 0 15.0097ZM0 8.08216C0 7.77595 0.127934 7.48227 0.355656 7.26574C0.583379 7.04921 0.892237 6.92757 1.21429 6.92757H18.2143C18.5363 6.92757 18.8452 7.04921 19.0729 7.26574C19.3006 7.48227 19.4286 7.77595 19.4286 8.08216C19.4286 8.38838 19.3006 8.68206 19.0729 8.89858C18.8452 9.11511 18.5363 9.23676 18.2143 9.23676H1.21429C0.892237 9.23676 0.583379 9.11511 0.355656 8.89858C0.127934 8.68206 0 8.38838 0 8.08216ZM0 1.15459C0 0.848377 0.127934 0.554702 0.355656 0.338173C0.583379 0.121645 0.892237 0 1.21429 0H27.9286C28.2506 0 28.5595 0.121645 28.7872 0.338173C29.0149 0.554702 29.1429 0.848377 29.1429 1.15459C29.1429 1.46081 29.0149 1.75449 28.7872 1.97102C28.5595 2.18754 28.2506 2.30919 27.9286 2.30919H1.21429C0.892237 2.30919 0.583379 2.18754 0.355656 1.97102C0.127934 1.75449 0 1.46081 0 1.15459Z" fill="white"/>
</svg>
