<svg width="20" height="18" viewBox="0 0 20 18" fill="none" xmlns="http://www.w3.org/2000/svg">
<path d="M19.2433 3.59227C18.9373 2.8893 18.4961 2.25228 17.9444 1.71687C17.3923 1.17985 16.7413 0.753099 16.0269 0.459806C15.2861 0.154472 14.4916 -0.00181603 13.6894 1.59202e-05C12.564 1.59202e-05 11.4661 0.305787 10.5119 0.883356C10.2836 1.02152 10.0668 1.17327 9.86132 1.33862C9.65587 1.17327 9.43901 1.02152 9.21074 0.883356C8.25657 0.305787 7.15858 1.59202e-05 6.03321 1.59202e-05C5.22285 1.59202e-05 4.43759 0.154034 3.69571 0.459806C2.97894 0.754253 2.33293 1.1778 1.77823 1.71687C1.22581 2.25168 0.784518 2.88885 0.47937 3.59227C0.162073 4.32385 0 5.10074 0 5.90027C0 6.65451 0.155224 7.44046 0.463391 8.23999C0.721337 8.90816 1.09114 9.60124 1.56366 10.3011C2.31239 11.4087 3.34189 12.5638 4.62021 13.7348C6.73857 15.6759 8.83638 17.0168 8.9254 17.0711L9.46641 17.4154C9.70609 17.5672 10.0143 17.5672 10.2539 17.4154L10.7949 17.0711C10.884 17.0145 12.9795 15.6759 15.1001 13.7348C16.3785 12.5638 17.408 11.4087 18.1567 10.3011C18.6292 9.60124 19.0013 8.90816 19.257 8.23999C19.5651 7.44046 19.7204 6.65451 19.7204 5.90027C19.7226 5.10074 19.5606 4.32385 19.2433 3.59227Z" fill="#FF2525"/>
</svg>
