<svg width="20" height="18" viewBox="0 0 20 18" fill="none" xmlns="http://www.w3.org/2000/svg">
<path d="M13.6895 0.547852H13.6904C14.4206 0.546184 15.1442 0.687969 15.8184 0.96582L15.8193 0.966797C16.469 1.23358 17.0608 1.62142 17.5625 2.10938V2.11035C18.0627 2.59582 18.4629 3.17282 18.7402 3.80957V3.81055C19.0278 4.47351 19.1749 5.17537 19.1729 5.89844V5.90039C19.1728 6.57895 19.0331 7.29819 18.7461 8.04297L18.7451 8.04395C18.5073 8.6656 18.157 9.32184 17.7031 9.99414C16.9845 11.0572 15.9862 12.1808 14.7305 13.3311C12.6442 15.2407 10.5792 16.5596 10.501 16.6094L9.96094 16.9521C9.90018 16.9906 9.81955 16.9906 9.75879 16.9521L9.21973 16.6094L9.21094 16.6035L9.20312 16.5986C9.19769 16.5952 9.19002 16.5909 9.18066 16.585C9.16141 16.5727 9.13437 16.5552 9.10059 16.5332C9.03305 16.4892 8.93793 16.4258 8.81934 16.3457C8.58201 16.1854 8.25043 15.9558 7.85645 15.668C7.16599 15.1636 6.28578 14.4824 5.37988 13.6816L4.99023 13.3311C3.89135 12.3244 2.98953 11.3385 2.2998 10.3955L2.01758 9.99414C1.62099 9.40669 1.30361 8.83091 1.06934 8.27832L0.974609 8.04297C0.687534 7.29815 0.547867 6.57899 0.547852 5.90039C0.547852 5.1763 0.693994 4.47348 0.981445 3.81055C1.25791 3.17324 1.65824 2.59532 2.15918 2.11035L2.16016 2.10938C2.66464 1.61917 3.25214 1.2347 3.9043 0.966797V0.96582C4.57901 0.687736 5.29343 0.547852 6.0332 0.547852C7.05908 0.547852 8.05881 0.826295 8.92676 1.35156C9.13441 1.47725 9.33135 1.61575 9.51758 1.76562L9.86133 2.04199L10.2051 1.76562C10.3913 1.61576 10.5882 1.47724 10.7959 1.35156C11.6638 0.826302 12.6636 0.547852 13.6895 0.547852Z" stroke="white" stroke-width="1.09558"/>
</svg>
